#!OML:ASF H:\Dans Jumps\Project 1\Capture day 1\Session 1\subject.ASF
:FULLY-SPECIFIED
:DEGREES
283
root 0.0977811 14.4882 -13.9592 27.8452 0.772562 -1.53788
lowerback 29.7264 1.34005 -2.46562
upperback -0.0340726 1.32735 2.60947
thorax -15.9579 0.880968 3.67968
lowerneck -25.8912 -0.312244 -1.2839
upperneck 6.22736 -0.130324 0.99477
head 5.94806 -0.0092569 0.512535
rclavicle -1.78906e-015 -1.07344e-014
rhumerus -20.4159 -6.84541 -75.6332
rradius 37.9482
rwrist 19.7276
rhand -22.3589 -25.6054
rfingers 7.12502
rthumb 4.06224 -55.5464
lclavicle -1.78906e-015 -1.07344e-014
lhumerus -21.7562 -7.7431 80.744
lradius 36.7699
lwrist 28.5987
lhand -29.3513 -9.88036
lfingers 7.12502
lthumb -2.69097 20.0824
rfemur -67.2437 -2.68775 22.4719
rtibia 80.3631
rfoot -34.5426 -19.1533
rtoes -11.9442
lfemur -67.2312 5.84325 -18.2648
ltibia 80.8506
lfoot -28.2561 22.2522
ltoes -24.9087
284
root 0.0950214 14.6771 -13.7834 27.004 0.885258 -1.49681
lowerback 29.2156 1.25413 -2.50312
upperback -0.211571 1.21473 2.60681
thorax -15.9196 0.83939 3.74909
lowerneck -25.7482 -0.322971 -1.25066
upperneck 7.18405 -0.174039 1.07979
head 6.24225 -0.0229889 0.531212
rclavicle -5.96354e-015 4.57205e-015
rhumerus -19.8548 -5.08519 -75.6686
rradius 40.0745
rwrist 18.9756
rhand -22.2936 -25.6714
rfingers 7.12502
rthumb 4.12523 -55.6113
lclavicle -5.96354e-015 4.57205e-015
lhumerus -21.3892 -9.67305 80.3576
lradius 40.3671
lwrist 29.461
lhand -29.5307 -9.68916
lfingers 7.12502
lthumb -2.86425 20.2714
rfemur -64.3574 -2.94337 22.4742
rtibia 78.2746
rfoot -34.0477 -19.0727
rtoes -12.6629
lfemur -64.5411 5.86682 -18.1774
ltibia 78.9641
lfoot -27.4653 21.8458
ltoes -25.4442
285
root 0.0927577 14.8718 -13.599 26.0977 0.973212 -1.46172
lowerback 28.6881 1.18321 -2.562
upperback -0.380266 1.11473 2.60621
thorax -15.8613 0.804345 3.82661
lowerneck -25.4999 -0.340334 -1.22529
upperneck 8.12813 -0.22421 1.14797
head 6.51778 -0.0412075 0.54478
rclavicle -7.55382e-015 -9.54166e-015
rhumerus -19.4416 -3.45997 -75.5867
rradius 42.3016
rwrist 18.3937
rhand -22.3133 -25.7369
rfingers 7.12502
rthumb 4.10624 -55.6771
lclavicle -7.55382e-015 -9.54166e-015
lhumerus -21.0027 -11.3179 79.8425
lradius 43.7788
lwrist 30.0783
lhand -29.7916 -9.47864
lfingers 7.12502
lthumb -3.11618 20.4783
rfemur -61.3567 -3.25318 22.494
rtibia 76.0867
rfoot -33.4151 -18.8929
rtoes -13.3543
lfemur -61.7302 6.00065 -18.1504
ltibia 76.9849
lfoot -26.6139 21.3381
ltoes -25.8813
286
root 0.0913135 15.0727 -13.4055 25.1398 1.03907 -1.42808
lowerback 28.1195 1.12222 -2.63409
upperback -0.541428 1.02392 2.60473
thorax -15.7721 0.773447 3.90607
lowerneck -25.1604 -0.372549 -1.23166
upperneck 9.08937 -0.286022 1.21514
head 6.78607 -0.0659912 0.561611
rclavicle -3.97569e-015 7.35503e-015
rhumerus -19.18 -2.01398 -75.4124
rradius 44.5832
rwrist 17.9427
rhand -22.4182 -25.8367
rfingers 7.12502
rthumb 4.00493 -55.7789
lclavicle -3.97569e-015 7.35503e-015
lhumerus -20.6267 -12.7498 79.2422
lradius 46.994
lwrist 30.6942
lhand -30.1401 -9.28632
lfingers 7.12502
lthumb -3.4528 20.6655
rfemur -58.2552 -3.63282 22.5165
rtibia 73.8008
rfoot -32.6392 -18.5784
rtoes -14.0546
lfemur -58.7976 6.24187 -18.1674
ltibia 74.8917
lfoot -25.7041 20.7172
ltoes -26.2817
287
root 0.0909941 15.2795 -13.203 24.1485 1.07455 -1.38934
lowerback 27.4825 1.06856 -2.72337
upperback -0.695097 0.938023 2.59917
thorax -15.6377 0.744715 3.98789
lowerneck -24.7266 -0.410488 -1.26045
upperneck 10.0743 -0.348294 1.26751
head 7.0481 -0.0932932 0.577102
rclavicle 5.96354e-016 1.39149e-014
rhumerus -19.0597 -0.742319 -75.1759
rradius 46.8516
rwrist 17.543
rhand -22.6139 -25.9653
rfingers 7.12502
rthumb 3.81593 -55.9108
lclavicle 5.96354e-016 1.39149e-014
lhumerus -20.3074 -14.0323 78.5937
lradius 49.9981
lwrist 31.4389
lhand -30.6081 -9.43163
lfingers 7.12502
lthumb -3.90473 20.5123
rfemur -55.0728 -4.08264 22.5158
rtibia 71.4168
rfoot -31.7289 -18.0762
rtoes -14.7106
lfemur -55.7542 6.59346 -18.2166
ltibia 72.6667
lfoot -24.7354 19.9552
ltoes -26.6732
288
root 0.0922502 15.4921 -12.991 23.1545 1.08286 -1.33231
lowerback 26.7316 1.01105 -2.82761
upperback -0.840328 0.843698 2.58381
thorax -15.4318 0.711241 4.06962
lowerneck -24.207 -0.456291 -1.32939
upperneck 11.0895 -0.410777 1.32088
head 7.30691 -0.122527 0.599451
rclavicle 9.93923e-015 5.36719e-015
rhumerus -19.0569 0.394257 -74.9078
rradius 49.0184
rwrist 17.1567
rhand -22.9298 -26.0798
rfingers 7.12502
rthumb 3.51091 -56.0306
lclavicle 9.93923e-015 5.36719e-015
lhumerus -20.0756 -15.1622 77.9012
lradius 52.8554
lwrist 32.4393
lhand -30.9511 -9.58147
lfingers 7.12502
lthumb -4.23595 20.3562
rfemur -51.8421 -4.61401 22.4654
rtibia 68.9303
rfoot -30.6584 -17.3862
rtoes -15.4191
lfemur -52.6246 7.04096 -18.2912
ltibia 70.2927
lfoot -23.709 19.0212
ltoes -27.0698
289
root 0.0949929 15.7102 -12.7697 22.185 1.06821 -1.25787
lowerback 25.877 0.941983 -2.93714
upperback -0.678869 0.722448 2.43124
thorax -15.4786 0.701335 4.26241
lowerneck -23.5832 -0.500653 -1.42307
upperneck 12.1112 -0.465896 1.37164
head 7.55093 -0.150221 0.626054
rclavicle -6.36111e-015 1.51076e-014
rhumerus -19.1464 1.44695 -74.6347
rradius 50.9887
rwrist 16.7832
rhand -23.2775 -26.1654
rfingers 7.12502
rthumb 3.17511 -56.1215
lclavicle -6.36111e-015 1.51076e-014
lhumerus -19.9746 -16.1858 77.1806
lradius 55.5723
lwrist 33.6186
lhand -31.1774 -9.88804
lfingers 7.12502
lthumb -4.45439 20.0451
rfemur -48.6409 -5.22109 22.3553
rtibia 66.5081
rfoot -29.5454 -16.514
rtoes -16.1944
lfemur -49.4883 7.57592 -18.3705
ltibia 67.9304
lfoot -22.7092 17.945
ltoes -27.5056
290
root 0.0987892 15.9339 -12.539 21.2691 1.03977 -1.16653
lowerback 24.7796 0.849227 -3.04514
upperback -0.833022 0.586767 2.39016
thorax -15.0244 0.638692 4.31407
lowerneck -22.8307 -0.530476 -1.51219
upperneck 13.0972 -0.50385 1.40991
head 7.76096 -0.171637 0.650181
rclavicle 8.15017e-015 1.19271e-015
rhumerus -19.2934 2.46232 -74.3797
rradius 52.6792
rwrist 16.4581
rhand -23.5857 -26.1916
rfingers 7.12502
rthumb 2.8775 -56.152
lclavicle 8.15017e-015 1.19271e-015
lhumerus -20.0058 -17.1217 76.4292
lradius 58.1502
lwrist 34.8578
lhand -31.2174 -10.2731
lfingers 7.12502
lthumb -4.49303 19.6592
rfemur -45.4546 -5.8963 22.1818
rtibia 63.977
rfoot -28.2582 -15.4125
rtoes -16.9802
lfemur -46.3432 8.18745 -18.4383
ltibia 65.4115
lfoot -21.5933 16.6396
ltoes -27.9752
291
root 0.104604 16.0734 -12.3138 20.4142 1.00694 -1.06698
lowerback 23.4688 0.729981 -3.12883
upperback -0.969529 0.426716 2.32444
thorax -14.4187 0.556289 4.32454
lowerneck -21.9299 -0.535381 -1.55204
upperneck 14.0129 -0.521085 1.41951
head 7.92074 -0.18443 0.65956
rclavicle 3.37934e-015 -1.39149e-015
rhumerus -19.4817 3.45827 -74.1626
rradius 54.0433
rwrist 16.2432
rhand -23.7912 -26.1552
rfingers 7.12502
rthumb 2.67897 -56.1181
lclavicle 3.37934e-015 -1.39149e-015
lhumerus -20.1468 -17.9984 75.6457
lradius 60.5492
lwrist 35.9737
lhand -31.0633 -10.6068
lfingers 7.12502
lthumb -4.34422 19.3286
rfemur -42.6633 -6.64186 21.9446
rtibia 61.7064
rfoot -26.7766 -14.067
rtoes -17.7848
lfemur -43.5884 8.87439 -18.4658
ltibia 63.1208
lfoot -20.3369 15.059
ltoes -28.4493
292
root 0.109393 16.3177 -12.063 19.6229 0.98028 -0.966614
lowerback 21.9406 0.585722 -3.17394
upperback -1.07886 0.247656 2.22964
thorax -13.6485 0.454655 4.27728
lowerneck -20.8963 -0.526034 -1.54497
upperneck 14.8586 -0.534148 1.42396
head 8.03214 -0.193692 0.660185
rclavicle 6.95746e-015 7.35503e-015
rhumerus -19.7075 4.43006 -73.9951
rradius 55.0739
rwrist 16.1626
rhand -23.8495 -26.0672
rfingers 7.12502
rthumb 2.62266 -56.0308
lclavicle 6.95746e-015 7.35503e-015
lhumerus -20.3491 -18.856 74.8316
lradius 62.706
lwrist 36.8363
lhand -30.7734 -10.9055
lfingers 7.12502
lthumb -4.06433 19.0355
rfemur -39.4626 -7.43071 21.6694
rtibia 58.8801
rfoot -25.0616 -12.4959
rtoes -18.5499
lfemur -40.415 9.609 -18.4507
ltibia 60.2435
lfoot -18.8862 13.2089
ltoes -28.9422
293
root 0.114483 16.5699 -11.8019 18.8875 0.963688 -0.870703
lowerback 20.2124 0.426007 -3.17012
upperback -1.14813 0.0635476 2.10433
thorax -12.7122 0.339711 4.15987
lowerneck -19.7556 -0.5076 -1.48059
upperneck 15.639 -0.551165 1.42331
head 8.10031 -0.202176 0.649268
rclavicle 1.19271e-015 -1.98785e-015
rhumerus -19.9829 5.36421 -73.8745
rradius 55.8167
rwrist 16.19
rhand -23.796 -25.9097
rfingers 7.12502
rthumb 2.67438 -55.8727
lclavicle 1.19271e-015 -1.98785e-015
lhumerus -20.5487 -19.7201 73.9993
lradius 64.5446
lwrist 37.3615
lhand -30.4409 -11.1629
lfingers 7.12502
lthumb -3.74327 18.7839
rfemur -36.2758 -8.2587 21.3527
rtibia 55.9203
rfoot -23.0468 -10.7056
rtoes -19.2537
lfemur -37.2609 10.383 -18.3739
ltibia 57.2191
lfoot -17.1893 11.0427
ltoes -29.3616
